# xmcd
#
# Track frame offsets:
#	183
#	17130
#	36015
#	56743
#	77393
#	98988
#	118380
#	137228
#	155375
#	179405
#	198123
#	226325
#	246543
#	272780
#	293733
#
# Disc length: 4360 seconds
#
# Revision: 6
# Processed by: cddbd v1.5.2PL0 Copyright (c) Steve Scherf et al.
# Submitted via: audiograbber 1.83.01
#
DISCID=d411060f
DTITLE=Peniston, Ce Ce - Thougt 'ya knew
DYEAR=1994
DGENRE=Soul
TTITLE0=Searchin'
TTITLE1=I'm in the mood (East 87th St. mix)
TTITLE2=Hit by love
TTITLE3=Whatever it is
TTITLE4=Forever in my heart
TTITLE5=I'm not over you
TTITLE6=Any way you wanna go
TTITLE7=Give what I'm givin'
TTITLE8=Through those doors
TTITLE9=Let my love surround you
TTITLE10=Keep givin' me your love
TTITLE11=If you love me, I will love you
TTITLE12=Maybe it's the way
TTITLE13=I will be received
TTITLE14=I'm in the mood (Bad Yard Club)
EXTD=
EXTT0=
EXTT1=
EXTT2=
EXTT3=
EXTT4=
EXTT5=
EXTT6=
EXTT7=
EXTT8=
EXTT9=
EXTT10=
EXTT11=
EXTT12=
EXTT13=
EXTT14=
PLAYORDER=
